# xmcd
# Track frame offsets:
# 150
# 12375
# 23022
# 34592
# 46522
# 59182
# 72597
# 83907
# 95325
# 108422
# 120400
# 133190
# 146745
# 159050
# 171757
# 184940
# 196985
# 209190
# 219915
# 232917
# 244975
# 255872
# 268857
# 279885
#
# Disc length: 3888 seconds
# Revision: 0
# Processed by: cddbd v1.4PL0 Copyright (c) Steve Scherf et al.
# Submitted via: VisiTrax 2.9.5.180 - For more info visit www.synapsa.com
#
DISCID=540f2e18
DTITLE=Eddy Arnold - The Tennessee Plowboy and his Guitar vol. 4
DYEAR=1998
DGENRE=
TTITLE0=I was foolish when I fell in love with you
TTITLE1=Something old, something new, something borrowed, something blue
TTITLE2=I tied a little string around my finger
TTITLE3=I'm Throwing rice
TTITLE4=Shepperd of my heart
TTITLE5=Why should I cry
TTITLE6=C-H-R-I-S-T-M-A-S
TTITLE7=To the last beat of my heart
TTITLE8=Take me in your arms and hold me
TTITLE9=Evil temp me not
TTITLE10=When Jesus beckons me home
TTITLE11=Will Santy come to Shanty town
TTITLE12=Beautiful isle of somewhere
TTITLE13=The lily of the valley
TTITLE14=Softly and tenderly
TTITLE15=Mama and daddy broke my heart
TTITLE16=You touched me
TTITLE17=The cattle call
TTITLE18=Chained to a memory
TTITLE19=The nearest thing to heaven
TTITLE20=Something old. something new, something borrowed something ble
TTITLE21=A prison without walls
TTITLE22=Cuddle buggin' baby
TTITLE23=Enclosed, one broken heart
EXTD=
EXTT0=
EXTT1=
EXTT2=
EXTT3=
EXTT4=
EXTT5=
EXTT6=
EXTT7=
EXTT8=
EXTT9=
EXTT10=
EXTT11=
EXTT12=
EXTT13=
EXTT14=
EXTT15=
EXTT16=
EXTT17=
EXTT18=
EXTT19=
EXTT20=
EXTT21=
EXTT22=
EXTT23=
PLAYORDER=
